<svg width="90" height="90" viewBox="0 0 90 90" fill="none" xmlns="http://www.w3.org/2000/svg">
<path d="M41 33.5H44C50.0751 33.5 55 38.4249 55 44.5V46.5" stroke="#EFBF04" stroke-width="3" stroke-linecap="round"/>
<path d="M39 26H42C53.598 26 63 35.402 63 47V47" stroke="#EFBF04" stroke-width="3" stroke-linecap="round"/>
<g filter="url(#filter0_d_17_161)">
<rect x="14" y="14" width="62" height="62" rx="6" stroke="#EFBF04" stroke-width="4" shape-rendering="crispEdges"/>
</g>
<path d="M54.2148 65.6906C32.5949 63.2874 25.4709 47.3876 24.214 35.7725C23.8642 32.5397 26.5916 30 29.8433 30C32.7818 30 35.3101 32.0779 35.8794 34.9608L36.3778 37.4849C36.6958 39.0956 35.9693 40.7328 34.5616 41.5778C32.8238 42.6209 32.1733 44.8349 33.37 46.4707C36.3995 50.6116 41.097 54.6341 44.3919 56.9577C45.832 57.9733 47.7237 57.3014 48.4029 55.6754C48.9592 54.3435 50.3727 53.5838 51.7904 53.8548L55.2978 54.5251C58.0265 55.0466 60 57.433 60 60.2111C60 63.4082 57.3924 66.0438 54.2148 65.6906Z" stroke="#EFBF04" stroke-width="3"/>
<defs>
<filter id="filter0_d_17_161" x="0" y="0" width="90" height="90" filterUnits="userSpaceOnUse" color-interpolation-filters="sRGB">
<feFlood flood-opacity="0" result="BackgroundImageFix"/>
<feColorMatrix in="SourceAlpha" type="matrix" values="0 0 0 0 0 0 0 0 0 0 0 0 0 0 0 0 0 0 127 0" result="hardAlpha"/>
<feMorphology radius="2" operator="dilate" in="SourceAlpha" result="effect1_dropShadow_17_161"/>
<feOffset/>
<feGaussianBlur stdDeviation="5"/>
<feComposite in2="hardAlpha" operator="out"/>
<feColorMatrix type="matrix" values="0 0 0 0 0.937255 0 0 0 0 0.74902 0 0 0 0 0.0156863 0 0 0 1 0"/>
<feBlend mode="normal" in2="BackgroundImageFix" result="effect1_dropShadow_17_161"/>
<feBlend mode="normal" in="SourceGraphic" in2="effect1_dropShadow_17_161" result="shape"/>
</filter>
</defs>
</svg>
