<svg width="60" height="64" viewBox="0 0 60 64" fill="none" xmlns="http://www.w3.org/2000/svg">
<path d="M50.2988 42.6168C50.2988 44.8287 48.4758 46.6201 46.2249 46.6201C46.1272 46.6201 46.0435 46.6978 46.0435 46.7984V54.8096C46.0435 54.9056 45.9644 54.9879 45.8621 54.9879C43.6112 54.9879 41.7882 53.1964 41.7882 50.9845V39.925C41.7882 39.0065 41.0301 38.2616 40.0953 38.2616H39.3373C38.342 38.2616 37.5375 39.0522 37.5375 40.0302V49.0925C37.5375 52.3464 34.854 54.9879 31.5381 54.9879H30.7243C27.4363 54.9879 24.7715 52.3692 24.7715 49.1382V48.4527C24.7715 47.4427 23.939 46.6247 22.9112 46.6247H18.2931C12.4705 46.6247 7.75012 41.9861 7.75012 36.2645V4.88664C7.75012 4.79066 7.82918 4.7084 7.9315 4.7084C10.1824 4.7084 12.0055 6.49986 12.0055 8.71175V35.5561C12.0055 39.3538 15.14 42.434 19.0047 42.434H22.7531C23.8692 42.434 24.7715 41.5474 24.7715 40.4506V38.0788C24.7715 35.8669 26.5945 34.0754 28.8454 34.0754C28.9431 34.0754 29.0268 34.1531 29.0268 34.2536V48.8914C29.0268 49.9471 29.9011 50.8063 30.9754 50.8063C32.2497 50.8063 33.2821 49.7917 33.2821 48.5395V39.989C33.2821 36.726 35.9748 34.0754 39.3001 34.0754H39.9325C43.3136 34.0754 46.0528 36.7672 46.0528 40.0896V40.2815C46.0528 41.4743 47.0387 42.4431 48.2525 42.4431H50.1314C50.2291 42.4431 50.3128 42.5208 50.3128 42.6214L50.2988 42.6168Z" fill="#F0EEEF"/>
<path d="M50.2988 19.4194C50.2988 20.5847 49.3361 21.5307 48.1502 21.5307H18.4326C17.2281 21.5307 16.2468 20.571 16.2468 19.3828V0.705087C16.2468 0.609116 16.3259 0.526855 16.4282 0.526855C18.6791 0.526855 20.5022 2.31831 20.5022 4.5302V15.0184C20.5022 16.3026 21.5625 17.3446 22.8693 17.3446H48.1874C49.3501 17.3446 50.2942 18.2723 50.2942 19.4148L50.2988 19.4194Z" fill="#F0EEEF"/>
<path d="M58.9722 38.9335V42.521H55.3215C52.6381 42.521 50.4616 40.3822 50.4616 37.7453V34.1578H54.1123C56.7958 34.1578 58.9722 36.2966 58.9722 38.9335Z" fill="#FCD600"/>
<path d="M24.7621 30.4924V34.0799H21.1114C18.4279 34.0799 16.2514 31.9411 16.2514 29.3042V25.7167H19.9022C22.5856 25.7167 24.7621 27.8555 24.7621 30.4924Z" fill="#F0EEEF"/>
<path d="M54.7867 49.4217V58.1961C54.7867 58.74 54.3402 59.1787 53.7868 59.1787H20.7394V50.8155H15.526C11.3544 50.8155 7.97335 54.138 7.97335 58.2373V59.1787H4.91788C4.25284 59.1787 3.71801 58.6486 3.71801 57.9996V13.1768C3.71801 10.8689 1.81125 8.99521 -0.537323 8.99521V58.9868C-0.537323 61.4043 1.4578 63.3603 3.91334 63.3603H54.4193C56.9725 63.3603 59.0467 61.3266 59.0467 58.8131V46.5471H57.7119C56.0982 46.5471 54.7913 47.8313 54.7913 49.4171L54.7867 49.4217ZM13.5634 59.1787H12.2287V57.8671C12.2287 56.2813 13.5355 54.9971 15.1493 54.9971H16.484V56.3087C16.484 57.8945 15.1772 59.1787 13.5634 59.1787Z" fill="#FCD600"/>
<path d="M58.9723 17.075V29.7249C58.9723 29.8208 58.8933 29.9031 58.7909 29.9031C56.54 29.9031 54.717 28.1116 54.717 25.8997V17.532C54.717 15.1282 52.7312 13.1768 50.2849 13.1768H28.9989C26.748 13.1768 24.925 11.3853 24.925 9.17344C24.925 9.07747 25.004 8.99521 25.1064 8.99521H50.75C55.2937 8.99521 58.977 12.6147 58.977 17.0796L58.9723 17.075Z" fill="#595A5A"/>
</svg>
