<svg width="90" height="90" viewBox="0 0 90 90" fill="none" xmlns="http://www.w3.org/2000/svg">
<g filter="url(#filter0_d_17_160)">
<rect x="14" y="14" width="62" height="62" rx="6" stroke="#EFBF04" stroke-width="4" shape-rendering="crispEdges"/>
</g>
<path fill-rule="evenodd" clip-rule="evenodd" d="M45.4498 64.5C45.4498 64.5 58.8996 46.8779 58.8996 39.4498C58.8996 32.0217 52.8779 26 45.4498 26C38.0217 26 32 32.0217 32 39.4498C32 46.8779 45.4498 64.5 45.4498 64.5ZM45.6179 45.1659C48.9606 45.1659 51.6703 42.4562 51.6703 39.1135C51.6703 35.7709 48.9606 33.0611 45.6179 33.0611C42.2753 33.0611 39.5655 35.7709 39.5655 39.1135C39.5655 42.4562 42.2753 45.1659 45.6179 45.1659Z" fill="#EFBF04"/>
<defs>
<filter id="filter0_d_17_160" x="0" y="0" width="90" height="90" filterUnits="userSpaceOnUse" color-interpolation-filters="sRGB">
<feFlood flood-opacity="0" result="BackgroundImageFix"/>
<feColorMatrix in="SourceAlpha" type="matrix" values="0 0 0 0 0 0 0 0 0 0 0 0 0 0 0 0 0 0 127 0" result="hardAlpha"/>
<feMorphology radius="2" operator="dilate" in="SourceAlpha" result="effect1_dropShadow_17_160"/>
<feOffset/>
<feGaussianBlur stdDeviation="5"/>
<feComposite in2="hardAlpha" operator="out"/>
<feColorMatrix type="matrix" values="0 0 0 0 0.937255 0 0 0 0 0.74902 0 0 0 0 0.0156863 0 0 0 1 0"/>
<feBlend mode="normal" in2="BackgroundImageFix" result="effect1_dropShadow_17_160"/>
<feBlend mode="normal" in="SourceGraphic" in2="effect1_dropShadow_17_160" result="shape"/>
</filter>
</defs>
</svg>
